<svg width="20" height="20" viewBox="0 0 20 20" fill="none" xmlns="http://www.w3.org/2000/svg">
<path d="M5.625 2.48926V4.35611M14.375 2.48926V4.35611M2.5 15.5572V6.22295C2.5 5.72783 2.69754 5.25299 3.04917 4.90289C3.40081 4.55279 3.87772 4.35611 4.375 4.35611H15.625C16.1223 4.35611 16.5992 4.55279 16.9508 4.90289C17.3025 5.25299 17.5 5.72783 17.5 6.22295V15.5572M2.5 15.5572C2.5 16.0523 2.69754 16.5272 3.04917 16.8773C3.40081 17.2274 3.87772 17.424 4.375 17.424H15.625C16.1223 17.424 16.5992 17.2274 16.9508 16.8773C17.3025 16.5272 17.5 16.0523 17.5 15.5572M2.5 15.5572V9.33437C2.5 8.83925 2.69754 8.36441 3.04917 8.01431C3.40081 7.6642 3.87772 7.46752 4.375 7.46752H15.625C16.1223 7.46752 16.5992 7.6642 16.9508 8.01431C17.3025 8.36441 17.5 8.83925 17.5 9.33437V15.5572M10 10.5789H10.0067V10.5856H10V10.5789ZM10 12.4458H10.0067V12.4524H10V12.4458ZM10 14.3126H10.0067V14.3193H10V14.3126ZM8.125 12.4458H8.13167V12.4524H8.125V12.4458ZM8.125 14.3126H8.13167V14.3193H8.125V14.3126ZM6.25 12.4458H6.25667V12.4524H6.25V12.4458ZM6.25 14.3126H6.25667V14.3193H6.25V14.3126ZM11.875 10.5789H11.8817V10.5856H11.875V10.5789ZM11.875 12.4458H11.8817V12.4524H11.875V12.4458ZM11.875 14.3126H11.8817V14.3193H11.875V14.3126ZM13.75 10.5789H13.7567V10.5856H13.75V10.5789ZM13.75 12.4458H13.7567V12.4524H13.75V12.4458Z" stroke="#919EAB" stroke-width="1.5" stroke-linecap="round" stroke-linejoin="round"/>
</svg>
