<svg width="20" height="20" viewBox="0 0 20 20" fill="none" xmlns="http://www.w3.org/2000/svg">
<path d="M6.875 5.60069H16.875M6.875 9.95667H16.875M6.875 14.3126H16.875M3.125 5.60069H3.13083V5.60733H3.125V5.60069ZM3.4375 5.60069C3.4375 5.68321 3.40458 5.76235 3.34597 5.8207C3.28737 5.87905 3.20788 5.91183 3.125 5.91183C3.04212 5.91183 2.96263 5.87905 2.90403 5.8207C2.84542 5.76235 2.8125 5.68321 2.8125 5.60069C2.8125 5.51817 2.84542 5.43903 2.90403 5.38068C2.96263 5.32233 3.04212 5.28955 3.125 5.28955C3.20788 5.28955 3.28737 5.32233 3.34597 5.38068C3.40458 5.43903 3.4375 5.51817 3.4375 5.60069ZM3.125 9.95667H3.13083V9.96331H3.125V9.95667ZM3.4375 9.95667C3.4375 10.0392 3.40458 10.1183 3.34597 10.1767C3.28737 10.235 3.20788 10.2678 3.125 10.2678C3.04212 10.2678 2.96263 10.235 2.90403 10.1767C2.84542 10.1183 2.8125 10.0392 2.8125 9.95667C2.8125 9.87415 2.84542 9.79501 2.90403 9.73666C2.96263 9.67831 3.04212 9.64553 3.125 9.64553C3.20788 9.64553 3.28737 9.67831 3.34597 9.73666C3.40458 9.79501 3.4375 9.87415 3.4375 9.95667ZM3.125 14.3126H3.13083V14.3193H3.125V14.3126ZM3.4375 14.3126C3.4375 14.3952 3.40458 14.4743 3.34597 14.5327C3.28737 14.591 3.20788 14.6238 3.125 14.6238C3.04212 14.6238 2.96263 14.591 2.90403 14.5327C2.84542 14.4743 2.8125 14.3952 2.8125 14.3126C2.8125 14.2301 2.84542 14.151 2.90403 14.0926C2.96263 14.0343 3.04212 14.0015 3.125 14.0015C3.20788 14.0015 3.28737 14.0343 3.34597 14.0926C3.40458 14.151 3.4375 14.2301 3.4375 14.3126Z" stroke="#919EAB" stroke-width="1.5" stroke-linecap="round" stroke-linejoin="round"/>
</svg>
