<svg width="70" height="70" viewBox="0 0 70 70" fill="none" xmlns="http://www.w3.org/2000/svg">
<rect x="1.5" y="1.5" width="67" height="67" rx="33.5" fill="#161C24" stroke="#33FF00" stroke-width="3"/>
<path d="M47.04 19.56H37.6V44H33.08V19.56H23.6V15.6H47.04V19.56Z" fill="#7635DC"/>
<path d="M35.416 54.205C33.0927 54.205 31.1247 53.8087 29.512 53.016C27.9267 52.2233 26.642 51.1437 25.658 49.777C24.7013 48.4103 23.9907 46.8523 23.526 45.103C23.0887 43.3537 22.87 41.536 22.87 39.65V24.89H27.462V39.65C27.462 40.9893 27.5987 42.2877 27.872 43.545C28.1453 44.775 28.5827 45.882 29.184 46.866C29.7853 47.85 30.5917 48.629 31.603 49.203C32.6417 49.777 33.9127 50.064 35.416 50.064C36.9467 50.064 38.2177 49.777 39.229 49.203C40.2677 48.6017 41.074 47.809 41.648 46.825C42.2493 45.8137 42.6867 44.693 42.96 43.463C43.2333 42.233 43.37 40.962 43.37 39.65V24.89H48.003V39.65C48.003 41.6453 47.757 43.5313 47.265 45.308C46.8003 47.0573 46.0623 48.6017 45.051 49.941C44.067 51.253 42.7823 52.2917 41.197 53.057C39.6117 53.8223 37.6847 54.205 35.416 54.205Z" fill="#7635DC"/>
</svg>
