<svg width="30" height="26" viewBox="0 0 30 26" fill="none" xmlns="http://www.w3.org/2000/svg">
<path fill-rule="evenodd" clip-rule="evenodd" d="M9.09385 0.267056C9.49458 0.0914351 9.93652 0 10.3846 0C10.8327 0 11.2746 0.0914351 11.6754 0.267056L19.3569 3.6331C19.52 3.70317 19.7108 3.70317 19.8738 3.6331L25.8262 1.0257C26.2659 0.833262 26.7545 0.742454 27.2456 0.76189C27.7367 0.781326 28.2139 0.910362 28.6321 1.13675C29.0502 1.36314 29.3954 1.67937 29.6348 2.05542C29.8742 2.43148 29.9999 2.85488 30 3.28545V20.1089C30 21.0657 29.3831 21.9415 28.4046 22.3687L20.9046 25.6525C20.5043 25.8277 20.0629 25.9189 19.6154 25.9189C19.1679 25.9189 18.7265 25.8277 18.3262 25.6525L10.6431 22.2878C10.5629 22.2526 10.4744 22.2343 10.3846 22.2343C10.2949 22.2343 10.2064 22.2526 10.1262 22.2878L4.17539 24.8953C3.73557 25.088 3.2468 25.1791 2.7555 25.1598C2.26419 25.1405 1.78668 25.0115 1.36831 24.7851C0.949939 24.5587 0.604609 24.2423 0.365124 23.8661C0.125639 23.4899 -4.88662e-05 23.0663 1.42519e-08 22.6355V5.812C1.42519e-08 4.85528 0.616923 3.97941 1.59385 3.55225L9.09385 0.268403V0.267056ZM10.3846 4.87549C10.6906 4.87549 10.9841 4.98197 11.2005 5.1715C11.4169 5.36103 11.5385 5.61808 11.5385 5.88612V17.003C11.5385 17.271 11.4169 17.5281 11.2005 17.7176C10.9841 17.9071 10.6906 18.0136 10.3846 18.0136C10.0786 18.0136 9.78511 17.9071 9.56872 17.7176C9.35234 17.5281 9.23077 17.271 9.23077 17.003V5.88612C9.23077 5.61808 9.35234 5.36103 9.56872 5.1715C9.78511 4.98197 10.0786 4.87549 10.3846 4.87549ZM20.7692 8.91798C20.7692 8.64995 20.6477 8.3929 20.4313 8.20337C20.2149 8.01384 19.9214 7.90736 19.6154 7.90736C19.3094 7.90736 19.0159 8.01384 18.7995 8.20337C18.5831 8.3929 18.4615 8.64995 18.4615 8.91798V20.0348C18.4615 20.3029 18.5831 20.5599 18.7995 20.7495C19.0159 20.939 19.3094 21.0455 19.6154 21.0455C19.9214 21.0455 20.2149 20.939 20.4313 20.7495C20.6477 20.5599 20.7692 20.3029 20.7692 20.0348V8.91798Z" fill="black"/>
</svg>
